<?xml version="1.0" standalone="no"?>
<!DOCTYPE svg PUBLIC "-//W3C//DTD SVG 20010904//EN"
 "http://www.w3.org/TR/2001/REC-SVG-20010904/DTD/svg10.dtd">
<svg version="1.0" xmlns="http://www.w3.org/2000/svg"
 width="669.000000pt" height="373.000000pt" viewBox="0 0 669.000000 373.000000"
 preserveAspectRatio="xMidYMid meet">

<g transform="translate(0.000000,373.000000) scale(0.100000,-0.100000)"
fill="#000000" stroke="none">
<path d="M3308 3557 c-63 -18 -123 -59 -151 -105 -32 -50 -39 -75 -38 -138 0
-68 26 -119 92 -182 l50 -48 -40 -29 c-23 -15 -41 -34 -41 -42 0 -7 -12 -19
-26 -25 -14 -7 -32 -27 -39 -45 -8 -18 -19 -33 -24 -33 -20 0 -10 -45 13 -62
19 -14 30 -15 57 -7 57 16 297 22 396 10 126 -15 162 6 113 69 -11 14 -20 30
-20 37 0 7 -10 18 -22 24 -12 7 -43 34 -70 61 l-47 48 49 46 c64 60 90 114 90
188 0 161 -174 280 -342 233z m86 -88 c29 -34 27 -39 -36 -78 -28 -17 -38 -29
-38 -48 0 -25 -1 -26 -57 -19 -31 4 -58 8 -58 9 -1 1 0 23 3 50 4 42 8 50 46
76 71 49 105 51 140 10z m156 -88 c29 -54 -2 -131 -52 -131 -22 0 -23 3 -20
64 3 54 7 65 25 74 31 15 35 14 47 -7z m-294 -245 c16 -12 30 -13 65 -5 24 6
65 7 90 4 26 -4 63 -2 82 3 29 8 35 7 30 -4 -8 -21 -29 -24 -156 -20 -94 2
-121 6 -135 19 -20 21 -4 22 24 3z m149 -46 c-28 -12 -73 -12 -80 0 -4 6 14
10 47 9 39 0 48 -3 33 -9z m-95 -54 c0 -20 -60 -32 -71 -15 -10 17 7 29 44 29
17 0 27 -5 27 -14z m200 -11 c0 -15 -26 -20 -54 -9 -28 11 -17 24 19 24 24 0
35 -5 35 -15z m-152 -44 c9 -5 -12 -11 -55 -15 -37 -4 -78 -9 -90 -13 -17 -4
-23 -1 -23 10 0 9 10 18 23 20 41 8 132 7 145 -2z m208 -1 c38 -15 23 -23 -37
-21 -61 2 -84 12 -49 22 37 10 56 10 86 -1z m-324 -76 c-5 -25 -4 -26 44 -20
l49 6 -58 -16 c-69 -19 -122 -13 -130 16 -4 15 1 21 16 25 12 2 31 6 42 8 39
9 42 7 37 -19z m368 -19 c0 -22 -4 -25 -32 -25 -52 0 -78 11 -78 31 0 16 8 19
55 19 52 0 55 -1 55 -25z"/>
<path d="M3223 2811 c-9 -15 -9 -23 1 -36 10 -14 12 -12 14 19 3 41 1 43 -15
17z"/>
<path d="M3278 2823 c17 -3 22 -11 22 -36 0 -29 1 -30 15 -11 14 19 14 19 15
-1 0 -24 39 -31 73 -14 19 10 18 7 -5 -18 -32 -34 -35 -45 -10 -36 14 5 15 3
5 -8 -18 -19 -16 -29 6 -29 11 0 23 -4 26 -10 4 -6 -5 -10 -19 -10 -29 0 -35
-20 -11 -40 11 -9 22 -7 55 11 l40 23 0 88 0 88 -27 1 c-16 0 -68 2 -118 4
-49 1 -80 1 -67 -2z"/>
<path d="M3145 2811 c-3 -6 10 -7 32 -4 50 8 55 13 10 13 -20 0 -38 -4 -42 -9z"/>
<path d="M3548 2814 c8 -4 12 -28 12 -70 l0 -65 31 18 c39 23 51 45 47 86 -3
31 -5 32 -53 34 -27 1 -44 0 -37 -3z"/>
<path d="M3170 2755 c-10 -12 -10 -18 0 -30 11 -13 15 -13 21 -3 11 17 11 48
0 48 -5 0 -14 -7 -21 -15z"/>
<path d="M3147 2713 c-13 -13 -7 -31 13 -36 11 -3 20 -2 20 1 -1 14 -27 41
-33 35z"/>
<path d="M3140 2650 c0 -13 5 -20 13 -17 6 2 12 10 12 17 0 7 -6 15 -12 18 -8
2 -13 -5 -13 -18z"/>
<path d="M3140 2594 c0 -22 2 -24 14 -14 8 6 12 18 9 26 -9 23 -23 16 -23 -12z"/>
<path d="M3147 2553 c-4 -3 -7 -49 -7 -102 l0 -96 19 31 c11 18 24 35 30 38 6
4 11 32 11 63 0 55 0 56 -20 38 -11 -10 -20 -13 -20 -7 0 6 5 14 10 17 6 3 10
10 10 16 0 10 -23 12 -33 2z"/>
<path d="M3593 2496 l-33 -31 0 -149 0 -149 26 24 c14 13 31 33 36 44 11 19
18 296 8 294 -3 -1 -20 -15 -37 -33z"/>
<path d="M3221 2484 c-12 -27 -11 -28 4 -12 10 9 16 21 13 28 -2 7 -10 -1 -17
-16z"/>
<path d="M3410 2354 c-122 -90 -113 -72 -115 -238 -1 -81 1 -146 5 -146 4 0
50 31 101 68 l94 68 3 152 c1 84 -1 152 -5 152 -5 -1 -42 -26 -83 -56z"/>
<path d="M3229 2198 c-2 -7 -2 -76 1 -153 l6 -140 2 153 c2 141 0 172 -9 140z"/>
<path d="M3170 2140 c-24 -33 -25 -43 -28 -190 l-3 -155 31 42 31 41 -3 149
-3 148 -25 -35z"/>
<path d="M3632 2014 c-1 -6 -18 -31 -37 -55 l-35 -44 1 -145 0 -145 34 39 c43
48 47 69 43 231 -2 72 -5 125 -6 119z"/>
<path d="M3420 1799 c-117 -94 -108 -75 -112 -237 -2 -78 1 -142 6 -142 10 0
147 104 170 129 14 15 16 41 14 164 l-3 146 -75 -60z"/>
<path d="M3218 1635 c-11 -18 -10 -311 2 -299 7 7 10 63 8 160 -2 82 -6 145
-10 139z"/>
<path d="M3170 1580 c-24 -33 -25 -43 -28 -190 l-3 -155 31 43 31 43 -3 147
-3 147 -25 -35z"/>
<path d="M2090 1461 c0 -107 29 -249 80 -383 32 -86 131 -228 212 -303 94 -87
132 -112 298 -197 52 -26 92 -48 89 -48 -20 0 -132 46 -187 76 -98 55 -225
147 -266 193 -10 11 -22 18 -26 16 -10 -6 -93 101 -141 182 -42 73 -48 77 -23
17 32 -77 127 -208 212 -294 171 -172 387 -281 589 -297 l82 -6 56 48 c31 26
53 51 48 55 -4 4 -35 15 -68 24 -90 25 -163 55 -238 98 -153 89 -402 312 -500
450 -62 87 -161 294 -183 383 -9 39 -21 74 -25 80 -5 5 -9 -36 -9 -94z m190
-363 c9 2 14 -12 11 -31 -1 -5 3 -6 8 -2 6 3 28 -18 49 -47 21 -29 46 -59 55
-67 23 -18 22 -37 0 -20 -16 13 -17 12 -4 -3 7 -10 16 -16 20 -13 4 2 36 -24
70 -59 36 -37 56 -63 47 -63 -9 0 -14 3 -11 6 7 6 -56 71 -68 71 -5 0 -4 -7 3
-15 21 -26 5 -16 -21 12 -13 14 -18 23 -11 19 6 -4 12 -2 12 4 0 7 -6 10 -14
7 -18 -7 -60 38 -51 54 5 7 4 10 -2 6 -15 -9 -77 66 -135 163 -37 61 -35 76 2
20 17 -25 35 -44 40 -42z m25 -173 c45 -64 152 -172 222 -226 23 -18 41 -35
39 -37 -9 -9 -96 57 -169 127 -86 84 -151 174 -190 266 -44 103 -40 114 9 20
25 -49 65 -117 89 -150z m60 -1 c150 -166 234 -233 380 -303 112 -54 126 -60
195 -80 42 -12 56 -19 39 -20 -62 -2 -275 81 -346 135 -17 13 -34 24 -38 24
-11 0 -148 121 -197 174 -47 50 -134 166 -125 166 3 0 44 -43 92 -96z m-30
-161 c21 -27 28 -39 16 -28 -23 19 -66 75 -59 75 2 0 21 -21 43 -47z m266 -10
c13 -16 12 -17 -3 -4 -10 7 -18 15 -18 17 0 8 8 3 21 -13z m2 -177 c51 -25
124 -51 162 -60 39 -8 99 -22 135 -30 86 -19 30 -21 -65 -2 -164 32 -352 122
-430 206 -23 24 -13 20 38 -19 38 -28 110 -71 160 -95z"/>
<path d="M3619 1448 c-7 -13 -23 -36 -35 -51 -23 -27 -24 -35 -24 -180 1 -139
2 -150 16 -132 47 60 54 90 58 240 2 80 2 145 0 145 -2 0 -9 -10 -15 -22z"/>
<path d="M4660 1362 c-60 -186 -159 -345 -299 -482 -91 -89 -270 -214 -378
-264 -34 -16 -60 -33 -57 -38 3 -4 -2 -5 -10 -2 -9 3 -16 1 -16 -5 0 -16 19
-14 96 10 87 27 159 67 260 145 123 96 181 164 312 368 36 55 85 178 108 267
23 88 13 89 -16 1z"/>
<path d="M3393 1213 l-103 -84 0 -120 0 -119 -47 1 c-27 1 -38 4 -25 6 21 4
22 9 22 95 l0 91 -21 -19 c-39 -34 -79 -97 -79 -123 0 -18 -10 -32 -30 -46
-16 -11 -30 -26 -30 -33 0 -14 32 -65 57 -90 7 -7 13 -17 13 -22 0 -5 9 -12
21 -15 12 -4 39 -24 61 -46 l40 -38 -26 -34 c-33 -44 -56 -99 -57 -139 0 -28
-2 -30 -9 -13 -6 13 -9 15 -9 5 -1 -27 36 -94 65 -120 26 -23 26 -22 -4 13
-18 21 -32 40 -32 42 0 3 25 -15 55 -39 79 -65 152 -72 213 -22 31 27 92 59
98 53 2 -2 -6 -17 -18 -33 -17 -23 -18 -26 -4 -14 27 22 56 89 56 133 0 46
-34 121 -68 147 -23 19 -24 22 -9 38 9 9 25 27 36 39 l21 23 -63 -5 -62 -5 40
14 c22 7 56 17 74 21 29 6 33 5 28 -9 -17 -44 57 34 87 91 14 28 14 33 1 45
-40 37 -41 37 -81 23 -22 -7 -86 -16 -144 -19 l-105 -7 40 33 c22 18 55 47 73
63 l33 30 -3 146 -3 147 -102 -85z m-86 -358 c0 -19 -55 -19 -112 0 l-40 13
76 1 c61 1 76 -2 76 -14z m278 4 c-16 -5 -59 -11 -95 -14 -64 -5 -64 -5 -30 9
19 7 62 14 95 14 51 0 55 -1 30 -9z m-246 -45 c2 -2 -14 -4 -37 -4 -49 0 -72
-8 -72 -25 0 -11 -9 -10 -40 3 -22 9 -40 23 -40 30 0 11 19 12 93 6 50 -3 94
-8 96 -10z m272 -16 c-7 -20 -17 -23 -65 -26 -55 -3 -63 1 -48 24 10 16 32 22
79 23 40 1 42 0 34 -21z m-363 -54 c12 -4 22 -9 22 -13 0 -10 -69 -1 -76 10
-6 10 20 12 54 3z m262 -53 c0 -5 -10 -11 -22 -15 -38 -10 -206 -7 -213 4 -4
6 28 10 90 9 53 -1 99 1 102 5 10 9 43 7 43 -3z m-170 -57 c0 -9 -8 -23 -17
-30 -17 -13 -17 -13 2 -14 18 -1 18 -2 3 -11 -18 -10 -15 -32 8 -59 17 -20 12
-66 -9 -87 -15 -15 -18 -15 -35 0 -10 9 -26 17 -34 17 -38 0 -25 72 21 114 13
12 21 31 21 53 0 26 4 33 20 33 12 0 20 -7 20 -16z m148 -24 c2 -14 12 -34 22
-45 21 -22 40 -67 40 -94 0 -23 -36 -61 -59 -61 -13 0 -21 13 -29 48 -6 28 -7
48 -1 50 12 5 12 35 0 48 -8 8 -15 53 -12 77 2 20 36 0 39 -23z"/>
</g>
</svg>
